<svg width="844" height="932" viewBox="0 0 844 932" fill="none" xmlns="http://www.w3.org/2000/svg">
<mask id="mask0_0_1" style="mask-type:luminance" maskUnits="userSpaceOnUse" x="10" y="30" width="824" height="824">
<path fill-rule="evenodd" clip-rule="evenodd" d="M834 286.627C834 276.845 834.004 267.062 833.944 257.279C833.895 249.038 833.8 240.799 833.576 232.562C833.092 214.609 832.033 196.502 828.84 178.749C825.602 160.741 820.314 143.98 811.981 127.617C803.789 111.534 793.088 96.8168 780.32 84.0578C767.555 71.2989 752.834 60.6049 736.746 52.4179C720.366 44.0829 703.587 38.797 685.558 35.56C667.803 32.372 649.691 31.315 631.738 30.83C623.495 30.607 615.253 30.513 607.008 30.462C597.22 30.402 587.432 30.407 577.644 30.407L463.997 30H378.997L267.361 30.407C257.554 30.407 247.747 30.402 237.94 30.462C229.678 30.513 221.42 30.607 213.161 30.83C195.167 31.315 177.014 32.373 159.217 35.565C141.164 38.801 124.36 44.0849 107.958 52.4139C91.8354 60.6019 77.0825 71.2969 64.2906 84.0578C51.5007 96.8158 40.7798 111.53 32.5728 127.61C24.2169 143.981 18.9189 160.752 15.673 178.77C12.477 196.516 11.418 214.617 10.931 232.562C10.709 240.8 10.613 249.039 10.563 257.279C10.503 267.063 10 279.216 10 288.999L10.003 399.089L10 484.998L10.508 597.427C10.508 607.223 10.504 617.019 10.563 626.815C10.613 635.067 10.709 643.317 10.932 651.566C11.418 669.542 12.479 687.675 15.678 705.452C18.9229 723.484 24.2199 740.269 32.5688 756.653C40.7768 772.759 51.4997 787.495 64.2906 800.272C77.0815 813.049 91.8304 823.757 107.95 831.956C124.362 840.302 141.174 845.595 159.238 848.836C177.027 852.029 195.174 853.088 213.161 853.573C221.42 853.796 229.679 853.891 237.941 853.941C247.748 854.001 257.554 853.997 267.361 853.997L380.006 854H465.217L577.644 853.996C587.432 853.996 597.22 854.001 607.008 853.941C615.253 853.891 623.495 853.796 631.738 853.573C649.698 853.087 667.816 852.027 685.579 848.832C703.597 845.591 720.368 840.3 736.739 831.959C752.831 823.761 767.554 813.051 780.32 800.272C793.086 787.497 803.786 772.763 811.978 756.66C820.316 740.268 825.604 723.475 828.844 705.431C832.034 687.661 833.092 669.535 833.577 651.566C833.8 643.316 833.895 635.066 833.944 626.815C834.005 617.019 834 607.223 834 597.427C834 597.427 833.994 486.983 833.994 484.998V398.999C833.994 397.533 834 286.627 834 286.627" fill="white"/>
</mask>
<g mask="url(#mask0_0_1)">
<rect x="-48" y="-32" width="914" height="914" fill="url(#paint0_linear_0_1)"/>
</g>
<g filter="url(#filter0_diiii_0_1)">
<path d="M259.025 852.516C306.102 841.076 352.943 829.636 400.02 817.953C452.746 805.052 505.236 790.448 557.02 773.409C563.375 771.462 569.731 769.028 575.615 766.107C579.617 764.16 586.443 763.43 585.031 757.345C583.854 751.99 577.498 752.233 573.026 751.99C541.25 750.042 509.473 751.503 478.167 754.667C402.844 762.213 329.169 756.371 257.142 731.3C215.95 716.939 175.229 702.821 138.509 678.481C122.503 668.014 108.145 655.357 96.8465 639.779C72.3667 607.163 71.8959 572.599 94.4927 538.765C113.794 510.287 140.392 491.545 169.58 475.236C207.712 454.06 247.727 438.482 289.861 428.746C336.702 418.036 384.249 414.385 432.032 416.089C435.092 416.089 437.916 416.089 441.212 414.628C431.09 411.22 420.733 408.056 410.612 404.162C348.235 379.821 287.977 350.856 235.487 307.773C214.773 290.978 197.355 270.775 182.291 248.381C161.812 217.956 179.231 189.477 204.652 176.577C230.544 163.433 259.261 160.998 287.507 159.051C352.237 154.67 416.732 149.315 481.227 140.309C500.293 137.631 519.359 135.928 537.719 129.842C542.191 128.382 546.663 126.678 550.665 124.488C556.785 121.08 564.082 117.429 563.375 108.666C562.669 100.634 556.549 96.2524 549.723 93.3315C529.716 84.5688 508.296 85.0557 487.347 84.3254C448.744 83.1084 409.906 83.8386 371.068 83.5952C366.595 83.5952 362.123 83.5952 357.18 81.4046C385.897 73.3721 414.613 65.0963 443.33 57.0639C478.402 47.5711 513.239 36.3744 549.252 31.5062C594.446 25.4211 634.461 37.348 664.355 75.076C676.83 90.8974 682.008 110.127 682.715 130.329C683.892 167.814 658.47 196.292 617.043 204.568C594.681 209.193 571.849 208.219 549.252 209.193C490.878 211.627 433.209 218.442 376.717 234.02C365.183 237.185 354.591 241.809 344.94 249.112C328.228 262.256 327.286 276.373 342.351 291.708C354.12 303.391 368.008 311.667 382.366 318.726C443.33 348.908 504.294 378.847 565.259 409.03C583.148 417.792 600.801 427.042 620.573 437.022C586.678 445.541 554.902 453.086 523.36 461.849C468.752 476.697 413.201 489.11 361.417 513.695C332.936 527.325 306.337 544.12 285.153 568.948C276.208 579.414 269.147 590.854 267.499 605.215C265.851 618.846 270.559 629.556 281.858 637.345C309.397 656.574 340.703 664.85 372.715 670.935C423.323 680.428 474.401 682.619 525.714 683.106C571.849 683.349 617.984 684.079 663.884 687.974C687.658 689.921 710.725 695.276 732.851 704.282C739.207 706.959 744.856 710.124 748.857 715.965C756.625 727.162 753.329 738.846 740.148 750.286C723.907 764.403 705.076 774.139 685.539 781.928C617.514 808.46 547.134 824.768 475.342 835.965C407.552 846.675 339.762 855.681 271.03 853.733C266.793 853.733 262.791 853.733 258.555 853.733C259.025 853.733 259.025 853.003 259.025 852.516Z" fill="white"/>
</g>
<defs>
<filter id="filter0_diiii_0_1" x="44" y="0" width="783" height="932" filterUnits="userSpaceOnUse" color-interpolation-filters="sRGB">
<feFlood flood-opacity="0" result="BackgroundImageFix"/>
<feColorMatrix in="SourceAlpha" type="matrix" values="0 0 0 0 0 0 0 0 0 0 0 0 0 0 0 0 0 0 127 0" result="hardAlpha"/>
<feOffset dx="20" dy="24"/>
<feGaussianBlur stdDeviation="27"/>
<feColorMatrix type="matrix" values="0 0 0 0 0 0 0 0 0 0 0 0 0 0 0 0 0 0 0.25 0"/>
<feBlend mode="normal" in2="BackgroundImageFix" result="effect1_dropShadow_0_1"/>
<feBlend mode="normal" in="SourceGraphic" in2="effect1_dropShadow_0_1" result="shape"/>
<feColorMatrix in="SourceAlpha" type="matrix" values="0 0 0 0 0 0 0 0 0 0 0 0 0 0 0 0 0 0 127 0" result="hardAlpha"/>
<feOffset dx="-10" dy="-16"/>
<feGaussianBlur stdDeviation="27.5"/>
<feComposite in2="hardAlpha" operator="arithmetic" k2="-1" k3="1"/>
<feColorMatrix type="matrix" values="0 0 0 0 0 0 0 0 0 0 0 0 0 0 0 0 0 0 0.25 0"/>
<feBlend mode="normal" in2="shape" result="effect2_innerShadow_0_1"/>
<feColorMatrix in="SourceAlpha" type="matrix" values="0 0 0 0 0 0 0 0 0 0 0 0 0 0 0 0 0 0 127 0" result="hardAlpha"/>
<feOffset dy="-16"/>
<feGaussianBlur stdDeviation="12"/>
<feComposite in2="hardAlpha" operator="arithmetic" k2="-1" k3="1"/>
<feColorMatrix type="matrix" values="0 0 0 0 0 0 0 0 0 0 0 0 0 0 0 0 0 0 0.15 0"/>
<feBlend mode="normal" in2="effect2_innerShadow_0_1" result="effect3_innerShadow_0_1"/>
<feColorMatrix in="SourceAlpha" type="matrix" values="0 0 0 0 0 0 0 0 0 0 0 0 0 0 0 0 0 0 127 0" result="hardAlpha"/>
<feOffset dx="30" dy="12"/>
<feGaussianBlur stdDeviation="17"/>
<feComposite in2="hardAlpha" operator="arithmetic" k2="-1" k3="1"/>
<feColorMatrix type="matrix" values="0 0 0 0 1 0 0 0 0 1 0 0 0 0 1 0 0 0 1 0"/>
<feBlend mode="normal" in2="effect3_innerShadow_0_1" result="effect4_innerShadow_0_1"/>
<feColorMatrix in="SourceAlpha" type="matrix" values="0 0 0 0 0 0 0 0 0 0 0 0 0 0 0 0 0 0 127 0" result="hardAlpha"/>
<feOffset dx="-4" dy="-6"/>
<feGaussianBlur stdDeviation="17"/>
<feComposite in2="hardAlpha" operator="arithmetic" k2="-1" k3="1"/>
<feColorMatrix type="matrix" values="0 0 0 0 0.669444 0 0 0 0 0.3 0 0 0 0 1 0 0 0 0.14 0"/>
<feBlend mode="normal" in2="effect4_innerShadow_0_1" result="effect5_innerShadow_0_1"/>
</filter>
<linearGradient id="paint0_linear_0_1" x1="119.5" y1="93" x2="698" y2="833" gradientUnits="userSpaceOnUse">
<stop stop-color="#8683EA"/>
<stop offset="1" stop-color="#933FBF"/>
</linearGradient>
</defs>
</svg>
